<svg xmlns="http://www.w3.org/2000/svg" xmlns:xlink="http://www.w3.org/1999/xlink" width="500" zoomAndPan="magnify" viewBox="0 0 375 374.999991" height="500" preserveAspectRatio="xMidYMid meet" version="1.0"><defs><g/><clipPath id="8d9a97aa0c"><path d="M 139.699219 93.679688 L 234.949219 93.679688 L 234.949219 177.679688 L 139.699219 177.679688 Z M 139.699219 93.679688 " clip-rule="nonzero"/></clipPath></defs><g clip-path="url(#8d9a97aa0c)"><path fill="#ff584a" d="M 200.578125 157.511719 L 224.523438 157.511719 L 224.597656 136.503906 L 206.234375 124.3125 Z M 193.59375 93.679688 L 180.828125 163.8125 L 180.023438 168.230469 L 139.703125 168.230469 L 139.703125 129.660156 L 142.320312 128.097656 L 180.652344 105.175781 L 182.746094 93.679688 Z M 171.125 157.511719 L 178.109375 119.144531 L 150.417969 135.699219 L 150.417969 157.511719 Z M 229.839844 168.230469 L 198.753906 168.230469 L 197.136719 177.714844 L 186.28125 177.714844 L 197.066406 114.410156 L 198.449219 106.308594 L 205.292969 110.851562 L 232.898438 129.179688 L 235.296875 130.769531 L 235.285156 133.636719 L 235.175781 162.871094 L 235.160156 168.230469 Z M 229.839844 168.230469 " fill-opacity="1" fill-rule="nonzero"/></g><g fill="#f1f1f1" fill-opacity="1"><g transform="translate(47.789064, 216.958769)"><g><path d="M 1.125 -11.203125 C 1.125 -13.492188 1.554688 -15.503906 2.421875 -17.234375 C 3.285156 -18.972656 4.460938 -20.304688 5.953125 -21.234375 C 7.453125 -22.171875 9.117188 -22.640625 10.953125 -22.640625 C 12.421875 -22.640625 13.757812 -22.332031 14.96875 -21.71875 C 16.1875 -21.101562 17.144531 -20.273438 17.84375 -19.234375 L 17.84375 -29.59375 L 24.6875 -29.59375 L 24.6875 0 L 17.84375 0 L 17.84375 -3.203125 C 17.195312 -2.128906 16.28125 -1.273438 15.09375 -0.640625 C 13.90625 -0.00390625 12.523438 0.3125 10.953125 0.3125 C 9.117188 0.3125 7.453125 -0.15625 5.953125 -1.09375 C 4.460938 -2.039062 3.285156 -3.390625 2.421875 -5.140625 C 1.554688 -6.890625 1.125 -8.910156 1.125 -11.203125 Z M 17.84375 -11.15625 C 17.84375 -12.863281 17.367188 -14.210938 16.421875 -15.203125 C 15.472656 -16.191406 14.316406 -16.6875 12.953125 -16.6875 C 11.597656 -16.6875 10.445312 -16.195312 9.5 -15.21875 C 8.550781 -14.25 8.078125 -12.910156 8.078125 -11.203125 C 8.078125 -9.492188 8.550781 -8.140625 9.5 -7.140625 C 10.445312 -6.140625 11.597656 -5.640625 12.953125 -5.640625 C 14.316406 -5.640625 15.472656 -6.128906 16.421875 -7.109375 C 17.367188 -8.097656 17.84375 -9.445312 17.84375 -11.15625 Z M 17.84375 -11.15625 "/></g></g></g><g fill="#f1f1f1" fill-opacity="1"><g transform="translate(74.946361, 216.958769)"><g><path d="M 23.515625 -11.515625 C 23.515625 -10.878906 23.476562 -10.210938 23.40625 -9.515625 L 7.921875 -9.515625 C 8.023438 -8.128906 8.46875 -7.066406 9.25 -6.328125 C 10.039062 -5.597656 11.007812 -5.234375 12.15625 -5.234375 C 13.863281 -5.234375 15.050781 -5.957031 15.71875 -7.40625 L 23 -7.40625 C 22.625 -5.9375 21.945312 -4.613281 20.96875 -3.4375 C 20 -2.269531 18.78125 -1.351562 17.3125 -0.6875 C 15.851562 -0.0195312 14.21875 0.3125 12.40625 0.3125 C 10.21875 0.3125 8.269531 -0.148438 6.5625 -1.078125 C 4.851562 -2.015625 3.519531 -3.347656 2.5625 -5.078125 C 1.601562 -6.816406 1.125 -8.84375 1.125 -11.15625 C 1.125 -13.476562 1.59375 -15.503906 2.53125 -17.234375 C 3.476562 -18.972656 4.804688 -20.304688 6.515625 -21.234375 C 8.222656 -22.171875 10.1875 -22.640625 12.40625 -22.640625 C 14.5625 -22.640625 16.476562 -22.1875 18.15625 -21.28125 C 19.84375 -20.375 21.15625 -19.078125 22.09375 -17.390625 C 23.039062 -15.710938 23.515625 -13.753906 23.515625 -11.515625 Z M 16.515625 -13.3125 C 16.515625 -14.488281 16.113281 -15.421875 15.3125 -16.109375 C 14.519531 -16.804688 13.519531 -17.15625 12.3125 -17.15625 C 11.164062 -17.15625 10.195312 -16.820312 9.40625 -16.15625 C 8.625 -15.488281 8.140625 -14.539062 7.953125 -13.3125 Z M 16.515625 -13.3125 "/></g></g></g><g fill="#f1f1f1" fill-opacity="1"><g transform="translate(99.58391, 216.958769)"><g><path d="M 1.125 -11.203125 C 1.125 -13.492188 1.554688 -15.503906 2.421875 -17.234375 C 3.285156 -18.972656 4.460938 -20.304688 5.953125 -21.234375 C 7.453125 -22.171875 9.117188 -22.640625 10.953125 -22.640625 C 12.523438 -22.640625 13.90625 -22.316406 15.09375 -21.671875 C 16.28125 -21.035156 17.195312 -20.195312 17.84375 -19.15625 L 17.84375 -22.3125 L 24.6875 -22.3125 L 24.6875 0 L 17.84375 0 L 17.84375 -3.15625 C 17.175781 -2.113281 16.25 -1.273438 15.0625 -0.640625 C 13.875 -0.00390625 12.492188 0.3125 10.921875 0.3125 C 9.109375 0.3125 7.453125 -0.15625 5.953125 -1.09375 C 4.460938 -2.039062 3.285156 -3.390625 2.421875 -5.140625 C 1.554688 -6.890625 1.125 -8.910156 1.125 -11.203125 Z M 17.84375 -11.15625 C 17.84375 -12.863281 17.367188 -14.210938 16.421875 -15.203125 C 15.472656 -16.191406 14.316406 -16.6875 12.953125 -16.6875 C 11.597656 -16.6875 10.445312 -16.195312 9.5 -15.21875 C 8.550781 -14.25 8.078125 -12.910156 8.078125 -11.203125 C 8.078125 -9.492188 8.550781 -8.140625 9.5 -7.140625 C 10.445312 -6.140625 11.597656 -5.640625 12.953125 -5.640625 C 14.316406 -5.640625 15.472656 -6.128906 16.421875 -7.109375 C 17.367188 -8.097656 17.84375 -9.445312 17.84375 -11.15625 Z M 17.84375 -11.15625 "/></g></g></g><g fill="#f1f1f1" fill-opacity="1"><g transform="translate(126.741207, 216.958769)"><g><path d="M 9.3125 -29.59375 L 9.3125 0 L 2.484375 0 L 2.484375 -29.59375 Z M 9.3125 -29.59375 "/></g></g></g><g fill="#f1f1f1" fill-opacity="1"><g transform="translate(138.54003, 216.958769)"><g/></g></g><g fill="#f1f1f1" fill-opacity="1"><g transform="translate(147.019186, 216.958769)"><g><path d="M 9.3125 -19.15625 C 9.976562 -20.195312 10.898438 -21.035156 12.078125 -21.671875 C 13.253906 -22.316406 14.628906 -22.640625 16.203125 -22.640625 C 18.035156 -22.640625 19.695312 -22.171875 21.1875 -21.234375 C 22.6875 -20.304688 23.867188 -18.972656 24.734375 -17.234375 C 25.609375 -15.503906 26.046875 -13.492188 26.046875 -11.203125 C 26.046875 -8.910156 25.609375 -6.890625 24.734375 -5.140625 C 23.867188 -3.390625 22.6875 -2.039062 21.1875 -1.09375 C 19.695312 -0.15625 18.035156 0.3125 16.203125 0.3125 C 14.648438 0.3125 13.28125 -0.00390625 12.09375 -0.640625 C 10.90625 -1.273438 9.976562 -2.101562 9.3125 -3.125 L 9.3125 10.640625 L 2.484375 10.640625 L 2.484375 -22.3125 L 9.3125 -22.3125 Z M 19.078125 -11.203125 C 19.078125 -12.910156 18.601562 -14.25 17.65625 -15.21875 C 16.707031 -16.195312 15.539062 -16.6875 14.15625 -16.6875 C 12.800781 -16.6875 11.648438 -16.191406 10.703125 -15.203125 C 9.753906 -14.210938 9.28125 -12.863281 9.28125 -11.15625 C 9.28125 -9.445312 9.753906 -8.097656 10.703125 -7.109375 C 11.648438 -6.128906 12.800781 -5.640625 14.15625 -5.640625 C 15.519531 -5.640625 16.679688 -6.140625 17.640625 -7.140625 C 18.597656 -8.140625 19.078125 -9.492188 19.078125 -11.203125 Z M 19.078125 -11.203125 "/></g></g></g><g fill="#f1f1f1" fill-opacity="1"><g transform="translate(174.176484, 216.958769)"><g><path d="M 9.3125 -18.59375 C 10.113281 -19.820312 11.113281 -20.789062 12.3125 -21.5 C 13.519531 -22.207031 14.851562 -22.5625 16.3125 -22.5625 L 16.3125 -15.3125 L 14.4375 -15.3125 C 12.726562 -15.3125 11.445312 -14.945312 10.59375 -14.21875 C 9.738281 -13.488281 9.3125 -12.203125 9.3125 -10.359375 L 9.3125 0 L 2.484375 0 L 2.484375 -22.3125 L 9.3125 -22.3125 Z M 9.3125 -18.59375 "/></g></g></g><g fill="#f1f1f1" fill-opacity="1"><g transform="translate(191.294784, 216.958769)"><g><path d="M 12.640625 0.3125 C 10.453125 0.3125 8.484375 -0.148438 6.734375 -1.078125 C 4.992188 -2.015625 3.625 -3.347656 2.625 -5.078125 C 1.625 -6.816406 1.125 -8.84375 1.125 -11.15625 C 1.125 -13.445312 1.628906 -15.46875 2.640625 -17.21875 C 3.648438 -18.96875 5.035156 -20.304688 6.796875 -21.234375 C 8.554688 -22.171875 10.53125 -22.640625 12.71875 -22.640625 C 14.90625 -22.640625 16.878906 -22.171875 18.640625 -21.234375 C 20.398438 -20.304688 21.785156 -18.96875 22.796875 -17.21875 C 23.804688 -15.46875 24.3125 -13.445312 24.3125 -11.15625 C 24.3125 -8.863281 23.796875 -6.84375 22.765625 -5.09375 C 21.742188 -3.351562 20.347656 -2.015625 18.578125 -1.078125 C 16.804688 -0.148438 14.828125 0.3125 12.640625 0.3125 Z M 12.640625 -5.59375 C 13.941406 -5.59375 15.050781 -6.070312 15.96875 -7.03125 C 16.894531 -8 17.359375 -9.375 17.359375 -11.15625 C 17.359375 -12.945312 16.910156 -14.320312 16.015625 -15.28125 C 15.128906 -16.238281 14.03125 -16.71875 12.71875 -16.71875 C 11.382812 -16.71875 10.273438 -16.242188 9.390625 -15.296875 C 8.515625 -14.347656 8.078125 -12.96875 8.078125 -11.15625 C 8.078125 -9.375 8.507812 -8 9.375 -7.03125 C 10.25 -6.070312 11.335938 -5.59375 12.640625 -5.59375 Z M 12.640625 -5.59375 "/></g></g></g><g fill="#f1f1f1" fill-opacity="1"><g transform="translate(216.772249, 216.958769)"><g><path d="M 9.3125 -19.15625 C 9.976562 -20.195312 10.898438 -21.035156 12.078125 -21.671875 C 13.253906 -22.316406 14.628906 -22.640625 16.203125 -22.640625 C 18.035156 -22.640625 19.695312 -22.171875 21.1875 -21.234375 C 22.6875 -20.304688 23.867188 -18.972656 24.734375 -17.234375 C 25.609375 -15.503906 26.046875 -13.492188 26.046875 -11.203125 C 26.046875 -8.910156 25.609375 -6.890625 24.734375 -5.140625 C 23.867188 -3.390625 22.6875 -2.039062 21.1875 -1.09375 C 19.695312 -0.15625 18.035156 0.3125 16.203125 0.3125 C 14.648438 0.3125 13.28125 -0.00390625 12.09375 -0.640625 C 10.90625 -1.273438 9.976562 -2.101562 9.3125 -3.125 L 9.3125 10.640625 L 2.484375 10.640625 L 2.484375 -22.3125 L 9.3125 -22.3125 Z M 19.078125 -11.203125 C 19.078125 -12.910156 18.601562 -14.25 17.65625 -15.21875 C 16.707031 -16.195312 15.539062 -16.6875 14.15625 -16.6875 C 12.800781 -16.6875 11.648438 -16.191406 10.703125 -15.203125 C 9.753906 -14.210938 9.28125 -12.863281 9.28125 -11.15625 C 9.28125 -9.445312 9.753906 -8.097656 10.703125 -7.109375 C 11.648438 -6.128906 12.800781 -5.640625 14.15625 -5.640625 C 15.519531 -5.640625 16.679688 -6.140625 17.640625 -7.140625 C 18.597656 -8.140625 19.078125 -9.492188 19.078125 -11.203125 Z M 19.078125 -11.203125 "/></g></g></g><g fill="#f1f1f1" fill-opacity="1"><g transform="translate(243.929546, 216.958769)"><g><path d="M 23.515625 -11.515625 C 23.515625 -10.878906 23.476562 -10.210938 23.40625 -9.515625 L 7.921875 -9.515625 C 8.023438 -8.128906 8.46875 -7.066406 9.25 -6.328125 C 10.039062 -5.597656 11.007812 -5.234375 12.15625 -5.234375 C 13.863281 -5.234375 15.050781 -5.957031 15.71875 -7.40625 L 23 -7.40625 C 22.625 -5.9375 21.945312 -4.613281 20.96875 -3.4375 C 20 -2.269531 18.78125 -1.351562 17.3125 -0.6875 C 15.851562 -0.0195312 14.21875 0.3125 12.40625 0.3125 C 10.21875 0.3125 8.269531 -0.148438 6.5625 -1.078125 C 4.851562 -2.015625 3.519531 -3.347656 2.5625 -5.078125 C 1.601562 -6.816406 1.125 -8.84375 1.125 -11.15625 C 1.125 -13.476562 1.59375 -15.503906 2.53125 -17.234375 C 3.476562 -18.972656 4.804688 -20.304688 6.515625 -21.234375 C 8.222656 -22.171875 10.1875 -22.640625 12.40625 -22.640625 C 14.5625 -22.640625 16.476562 -22.1875 18.15625 -21.28125 C 19.84375 -20.375 21.15625 -19.078125 22.09375 -17.390625 C 23.039062 -15.710938 23.515625 -13.753906 23.515625 -11.515625 Z M 16.515625 -13.3125 C 16.515625 -14.488281 16.113281 -15.421875 15.3125 -16.109375 C 14.519531 -16.804688 13.519531 -17.15625 12.3125 -17.15625 C 11.164062 -17.15625 10.195312 -16.820312 9.40625 -16.15625 C 8.625 -15.488281 8.140625 -14.539062 7.953125 -13.3125 Z M 16.515625 -13.3125 "/></g></g></g><g fill="#f1f1f1" fill-opacity="1"><g transform="translate(268.567094, 216.958769)"><g><path d="M 9.3125 -18.59375 C 10.113281 -19.820312 11.113281 -20.789062 12.3125 -21.5 C 13.519531 -22.207031 14.851562 -22.5625 16.3125 -22.5625 L 16.3125 -15.3125 L 14.4375 -15.3125 C 12.726562 -15.3125 11.445312 -14.945312 10.59375 -14.21875 C 9.738281 -13.488281 9.3125 -12.203125 9.3125 -10.359375 L 9.3125 0 L 2.484375 0 L 2.484375 -22.3125 L 9.3125 -22.3125 Z M 9.3125 -18.59375 "/></g></g></g><g fill="#f1f1f1" fill-opacity="1"><g transform="translate(285.685395, 216.958769)"><g><path d="M 14.921875 -5.796875 L 14.921875 0 L 11.4375 0 C 8.957031 0 7.023438 -0.601562 5.640625 -1.8125 C 4.253906 -3.03125 3.5625 -5.015625 3.5625 -7.765625 L 3.5625 -16.640625 L 0.84375 -16.640625 L 0.84375 -22.3125 L 3.5625 -22.3125 L 3.5625 -27.765625 L 10.40625 -27.765625 L 10.40625 -22.3125 L 14.875 -22.3125 L 14.875 -16.640625 L 10.40625 -16.640625 L 10.40625 -7.6875 C 10.40625 -7.019531 10.5625 -6.535156 10.875 -6.234375 C 11.195312 -5.941406 11.734375 -5.796875 12.484375 -5.796875 Z M 14.921875 -5.796875 "/></g></g></g><g fill="#f1f1f1" fill-opacity="1"><g transform="translate(301.923782, 216.958769)"><g><path d="M 25.28125 -22.3125 L 11.28125 10.59375 L 3.921875 10.59375 L 9.046875 -0.765625 L -0.046875 -22.3125 L 7.59375 -22.3125 L 12.765625 -8.359375 L 17.875 -22.3125 Z M 25.28125 -22.3125 "/></g></g></g><path stroke-linecap="butt" transform="matrix(0.75, 0, 0, 0.75, 64.058628, 234.560157)" fill="none" stroke-linejoin="miter" d="M -0.000046058 6.497917 L 176.651007 6.497917 " stroke="#ff584a" stroke-width="13" stroke-opacity="1" stroke-miterlimit="4"/><g fill="#f1f1f1" fill-opacity="1"><g transform="translate(201.846378, 244.744686)"><g><path d="M 9.6875 -11.984375 L 9.6875 -9.65625 L 6.5 -9.65625 L 6.5 0 L 3.59375 0 L 3.59375 -9.65625 L 0.40625 -9.65625 L 0.40625 -11.984375 Z M 9.6875 -11.984375 "/></g></g></g><g fill="#f1f1f1" fill-opacity="1"><g transform="translate(213.610869, 244.744686)"><g><path d="M 0.484375 -4.78125 C 0.484375 -5.757812 0.664062 -6.617188 1.03125 -7.359375 C 1.40625 -8.097656 1.910156 -8.664062 2.546875 -9.0625 C 3.179688 -9.46875 3.890625 -9.671875 4.671875 -9.671875 C 5.347656 -9.671875 5.9375 -9.53125 6.4375 -9.25 C 6.945312 -8.976562 7.335938 -8.625 7.609375 -8.1875 L 7.609375 -9.53125 L 10.53125 -9.53125 L 10.53125 0 L 7.609375 0 L 7.609375 -1.34375 C 7.328125 -0.90625 6.929688 -0.546875 6.421875 -0.265625 C 5.921875 0.00390625 5.332031 0.140625 4.65625 0.140625 C 3.882812 0.140625 3.179688 -0.0625 2.546875 -0.46875 C 1.910156 -0.875 1.40625 -1.445312 1.03125 -2.1875 C 0.664062 -2.9375 0.484375 -3.800781 0.484375 -4.78125 Z M 7.609375 -4.765625 C 7.609375 -5.492188 7.40625 -6.066406 7 -6.484375 C 6.601562 -6.910156 6.113281 -7.125 5.53125 -7.125 C 4.945312 -7.125 4.453125 -6.914062 4.046875 -6.5 C 3.648438 -6.082031 3.453125 -5.507812 3.453125 -4.78125 C 3.453125 -4.050781 3.648438 -3.472656 4.046875 -3.046875 C 4.453125 -2.617188 4.945312 -2.40625 5.53125 -2.40625 C 6.113281 -2.40625 6.601562 -2.613281 7 -3.03125 C 7.40625 -3.457031 7.609375 -4.035156 7.609375 -4.765625 Z M 7.609375 -4.765625 "/></g></g></g><g fill="#f1f1f1" fill-opacity="1"><g transform="translate(226.87789, 244.744686)"><g><path d="M 2.53125 -10.515625 C 2.019531 -10.515625 1.597656 -10.664062 1.265625 -10.96875 C 0.941406 -11.269531 0.78125 -11.644531 0.78125 -12.09375 C 0.78125 -12.550781 0.941406 -12.925781 1.265625 -13.21875 C 1.597656 -13.519531 2.019531 -13.671875 2.53125 -13.671875 C 3.03125 -13.671875 3.441406 -13.519531 3.765625 -13.21875 C 4.085938 -12.925781 4.25 -12.550781 4.25 -12.09375 C 4.25 -11.644531 4.085938 -11.269531 3.765625 -10.96875 C 3.441406 -10.664062 3.03125 -10.515625 2.53125 -10.515625 Z M 3.984375 -9.53125 L 3.984375 0 L 1.0625 0 L 1.0625 -9.53125 Z M 3.984375 -9.53125 "/></g></g></g><g fill="#f1f1f1" fill-opacity="1"><g transform="translate(233.588407, 244.744686)"><g><path d="M 3.984375 -12.640625 L 3.984375 0 L 1.0625 0 L 1.0625 -12.640625 Z M 3.984375 -12.640625 "/></g></g></g><g fill="#f1f1f1" fill-opacity="1"><g transform="translate(240.298924, 244.744686)"><g><path d="M 5.390625 0.140625 C 4.460938 0.140625 3.625 -0.0546875 2.875 -0.453125 C 2.132812 -0.859375 1.550781 -1.429688 1.125 -2.171875 C 0.695312 -2.910156 0.484375 -3.773438 0.484375 -4.765625 C 0.484375 -5.742188 0.695312 -6.601562 1.125 -7.34375 C 1.5625 -8.09375 2.15625 -8.664062 2.90625 -9.0625 C 3.65625 -9.46875 4.5 -9.671875 5.4375 -9.671875 C 6.363281 -9.671875 7.203125 -9.46875 7.953125 -9.0625 C 8.703125 -8.664062 9.296875 -8.09375 9.734375 -7.34375 C 10.171875 -6.601562 10.390625 -5.742188 10.390625 -4.765625 C 10.390625 -3.785156 10.164062 -2.921875 9.71875 -2.171875 C 9.28125 -1.429688 8.679688 -0.859375 7.921875 -0.453125 C 7.171875 -0.0546875 6.328125 0.140625 5.390625 0.140625 Z M 5.390625 -2.390625 C 5.953125 -2.390625 6.425781 -2.59375 6.8125 -3 C 7.207031 -3.414062 7.40625 -4.003906 7.40625 -4.765625 C 7.40625 -5.523438 7.210938 -6.109375 6.828125 -6.515625 C 6.453125 -6.929688 5.988281 -7.140625 5.4375 -7.140625 C 4.863281 -7.140625 4.390625 -6.9375 4.015625 -6.53125 C 3.640625 -6.125 3.453125 -5.535156 3.453125 -4.765625 C 3.453125 -4.003906 3.632812 -3.414062 4 -3 C 4.375 -2.59375 4.835938 -2.390625 5.390625 -2.390625 Z M 5.390625 -2.390625 "/></g></g></g><g fill="#f1f1f1" fill-opacity="1"><g transform="translate(252.848824, 244.744686)"><g><path d="M 3.984375 -7.9375 C 4.316406 -8.46875 4.738281 -8.878906 5.25 -9.171875 C 5.769531 -9.472656 6.34375 -9.625 6.96875 -9.625 L 6.96875 -6.546875 L 6.171875 -6.546875 C 5.441406 -6.546875 4.894531 -6.390625 4.53125 -6.078125 C 4.164062 -5.765625 3.984375 -5.210938 3.984375 -4.421875 L 3.984375 0 L 1.0625 0 L 1.0625 -9.53125 L 3.984375 -9.53125 Z M 3.984375 -7.9375 "/></g></g></g><g fill="#f1f1f1" fill-opacity="1"><g transform="translate(261.830215, 244.744686)"><g/></g></g><g fill="#f1f1f1" fill-opacity="1"><g transform="translate(267.123565, 244.744686)"><g><path d="M 8.3125 -6.140625 C 9.007812 -5.992188 9.566406 -5.648438 9.984375 -5.109375 C 10.410156 -4.566406 10.625 -3.953125 10.625 -3.265625 C 10.625 -2.265625 10.269531 -1.46875 9.5625 -0.875 C 8.863281 -0.289062 7.890625 0 6.640625 0 L 1.0625 0 L 1.0625 -11.984375 L 6.453125 -11.984375 C 7.671875 -11.984375 8.625 -11.703125 9.3125 -11.140625 C 10 -10.585938 10.34375 -9.832031 10.34375 -8.875 C 10.34375 -8.175781 10.15625 -7.59375 9.78125 -7.125 C 9.414062 -6.65625 8.925781 -6.328125 8.3125 -6.140625 Z M 3.984375 -7.140625 L 5.890625 -7.140625 C 6.367188 -7.140625 6.734375 -7.242188 6.984375 -7.453125 C 7.242188 -7.660156 7.375 -7.972656 7.375 -8.390625 C 7.375 -8.796875 7.242188 -9.109375 6.984375 -9.328125 C 6.734375 -9.546875 6.367188 -9.65625 5.890625 -9.65625 L 3.984375 -9.65625 Z M 6.125 -2.359375 C 6.613281 -2.359375 6.992188 -2.46875 7.265625 -2.6875 C 7.535156 -2.90625 7.671875 -3.226562 7.671875 -3.65625 C 7.671875 -4.070312 7.53125 -4.398438 7.25 -4.640625 C 6.96875 -4.878906 6.582031 -5 6.09375 -5 L 3.984375 -5 L 3.984375 -2.359375 Z M 6.125 -2.359375 "/></g></g></g><g fill="#f1f1f1" fill-opacity="1"><g transform="translate(280.049093, 244.744686)"><g><path d="M 0.484375 -4.78125 C 0.484375 -5.757812 0.664062 -6.617188 1.03125 -7.359375 C 1.40625 -8.097656 1.910156 -8.664062 2.546875 -9.0625 C 3.179688 -9.46875 3.890625 -9.671875 4.671875 -9.671875 C 5.347656 -9.671875 5.9375 -9.53125 6.4375 -9.25 C 6.945312 -8.976562 7.335938 -8.625 7.609375 -8.1875 L 7.609375 -9.53125 L 10.53125 -9.53125 L 10.53125 0 L 7.609375 0 L 7.609375 -1.34375 C 7.328125 -0.90625 6.929688 -0.546875 6.421875 -0.265625 C 5.921875 0.00390625 5.332031 0.140625 4.65625 0.140625 C 3.882812 0.140625 3.179688 -0.0625 2.546875 -0.46875 C 1.910156 -0.875 1.40625 -1.445312 1.03125 -2.1875 C 0.664062 -2.9375 0.484375 -3.800781 0.484375 -4.78125 Z M 7.609375 -4.765625 C 7.609375 -5.492188 7.40625 -6.066406 7 -6.484375 C 6.601562 -6.910156 6.113281 -7.125 5.53125 -7.125 C 4.945312 -7.125 4.453125 -6.914062 4.046875 -6.5 C 3.648438 -6.082031 3.453125 -5.507812 3.453125 -4.78125 C 3.453125 -4.050781 3.648438 -3.472656 4.046875 -3.046875 C 4.453125 -2.617188 4.945312 -2.40625 5.53125 -2.40625 C 6.113281 -2.40625 6.601562 -2.613281 7 -3.03125 C 7.40625 -3.457031 7.609375 -4.035156 7.609375 -4.765625 Z M 7.609375 -4.765625 "/></g></g></g><g fill="#f1f1f1" fill-opacity="1"><g transform="translate(293.316114, 244.744686)"><g><path d="M 4.9375 0.140625 C 4.101562 0.140625 3.359375 0 2.703125 -0.28125 C 2.054688 -0.570312 1.546875 -0.960938 1.171875 -1.453125 C 0.796875 -1.953125 0.585938 -2.507812 0.546875 -3.125 L 3.4375 -3.125 C 3.46875 -2.789062 3.617188 -2.519531 3.890625 -2.3125 C 4.160156 -2.113281 4.5 -2.015625 4.90625 -2.015625 C 5.269531 -2.015625 5.550781 -2.082031 5.75 -2.21875 C 5.945312 -2.363281 6.046875 -2.550781 6.046875 -2.78125 C 6.046875 -3.050781 5.898438 -3.253906 5.609375 -3.390625 C 5.328125 -3.523438 4.867188 -3.671875 4.234375 -3.828125 C 3.546875 -3.984375 2.972656 -4.148438 2.515625 -4.328125 C 2.066406 -4.503906 1.675781 -4.78125 1.34375 -5.15625 C 1.019531 -5.539062 0.859375 -6.0625 0.859375 -6.71875 C 0.859375 -7.257812 1.007812 -7.753906 1.3125 -8.203125 C 1.613281 -8.648438 2.054688 -9.003906 2.640625 -9.265625 C 3.222656 -9.535156 3.921875 -9.671875 4.734375 -9.671875 C 5.929688 -9.671875 6.875 -9.375 7.5625 -8.78125 C 8.25 -8.1875 8.644531 -7.398438 8.75 -6.421875 L 6.046875 -6.421875 C 6.003906 -6.753906 5.859375 -7.015625 5.609375 -7.203125 C 5.367188 -7.398438 5.046875 -7.5 4.640625 -7.5 C 4.304688 -7.5 4.046875 -7.429688 3.859375 -7.296875 C 3.679688 -7.171875 3.59375 -6.992188 3.59375 -6.765625 C 3.59375 -6.492188 3.734375 -6.285156 4.015625 -6.140625 C 4.304688 -6.003906 4.757812 -5.867188 5.375 -5.734375 C 6.082031 -5.554688 6.65625 -5.378906 7.09375 -5.203125 C 7.539062 -5.023438 7.929688 -4.738281 8.265625 -4.34375 C 8.609375 -3.945312 8.785156 -3.421875 8.796875 -2.765625 C 8.796875 -2.210938 8.640625 -1.710938 8.328125 -1.265625 C 8.015625 -0.828125 7.5625 -0.484375 6.96875 -0.234375 C 6.382812 0.015625 5.707031 0.140625 4.9375 0.140625 Z M 4.9375 0.140625 "/></g></g></g><g fill="#f1f1f1" fill-opacity="1"><g transform="translate(304.517155, 244.744686)"><g><path d="M 10.046875 -4.921875 C 10.046875 -4.648438 10.023438 -4.363281 9.984375 -4.0625 L 3.375 -4.0625 C 3.425781 -3.46875 3.617188 -3.015625 3.953125 -2.703125 C 4.285156 -2.390625 4.695312 -2.234375 5.1875 -2.234375 C 5.914062 -2.234375 6.425781 -2.539062 6.71875 -3.15625 L 9.8125 -3.15625 C 9.65625 -2.53125 9.367188 -1.96875 8.953125 -1.46875 C 8.535156 -0.96875 8.015625 -0.570312 7.390625 -0.28125 C 6.765625 0 6.066406 0.140625 5.296875 0.140625 C 4.359375 0.140625 3.523438 -0.0546875 2.796875 -0.453125 C 2.066406 -0.859375 1.5 -1.429688 1.09375 -2.171875 C 0.6875 -2.910156 0.484375 -3.773438 0.484375 -4.765625 C 0.484375 -5.753906 0.679688 -6.617188 1.078125 -7.359375 C 1.484375 -8.097656 2.050781 -8.664062 2.78125 -9.0625 C 3.507812 -9.46875 4.347656 -9.671875 5.296875 -9.671875 C 6.210938 -9.671875 7.03125 -9.472656 7.75 -9.078125 C 8.46875 -8.691406 9.03125 -8.140625 9.4375 -7.421875 C 9.84375 -6.710938 10.046875 -5.878906 10.046875 -4.921875 Z M 7.046875 -5.6875 C 7.046875 -6.1875 6.875 -6.582031 6.53125 -6.875 C 6.195312 -7.175781 5.773438 -7.328125 5.265625 -7.328125 C 4.773438 -7.328125 4.359375 -7.179688 4.015625 -6.890625 C 3.679688 -6.609375 3.476562 -6.207031 3.40625 -5.6875 Z M 7.046875 -5.6875 "/></g></g></g></svg>