<svg xmlns="http://www.w3.org/2000/svg" xmlns:xlink="http://www.w3.org/1999/xlink" width="500" zoomAndPan="magnify" viewBox="0 0 375 374.999991" height="500" preserveAspectRatio="xMidYMid meet" version="1.0"><defs><clipPath id="e4e9ebde04"><path d="M 4.679688 26.800781 L 370.679688 26.800781 L 370.679688 348.550781 L 4.679688 348.550781 Z M 4.679688 26.800781 " clip-rule="nonzero"/></clipPath></defs><g clip-path="url(#e4e9ebde04)"><path fill="#ff584a" d="M 237.519531 270.933594 L 329.097656 270.933594 L 329.390625 190.585938 L 259.15625 143.957031 L 237.519531 270.9375 Z M 210.8125 26.800781 L 161.980469 295.03125 L 158.902344 311.921875 L 4.699219 311.921875 L 4.699219 164.414062 L 14.707031 158.429688 L 161.308594 70.773438 L 169.316406 26.800781 Z M 124.871094 270.933594 L 151.585938 124.191406 L 45.683594 187.511719 L 45.683594 270.933594 Z M 349.4375 311.921875 L 230.535156 311.921875 L 224.355469 348.207031 L 182.835938 348.207031 L 224.09375 106.085938 L 229.378906 75.097656 L 255.554688 92.476562 L 361.132812 162.574219 L 370.296875 168.65625 L 370.257812 179.625 L 369.847656 291.433594 L 369.773438 311.929688 L 349.4375 311.929688 Z M 349.4375 311.921875 " fill-opacity="1" fill-rule="nonzero"/></g></svg>